HIERARCHY
ROOT Hips
{
	OFFSET -3.958830 18.904000 13.208200
	CHANNELS 6 Xposition Yposition Zposition Zrotation Yrotation Xrotation 
	JOINT LHipJoint
	{
		OFFSET 0.000000 0.000000 0.000000
		CHANNELS 3 Zrotation Yrotation Xrotation
		JOINT LeftUpLeg
		{
			OFFSET 1.800000 -1.400000 0.085000
			CHANNELS 3 Zrotation Yrotation Xrotation
			JOINT LeftLeg
			{
				OFFSET 2.215000 -6.000000 0.000000
				CHANNELS 3 Zrotation Yrotation Xrotation
				JOINT LeftFoot
				{
					OFFSET 2.500000 -6.900000 0.000000
					CHANNELS 3 Zrotation Yrotation Xrotation
					JOINT LeftToeBase
					{
						OFFSET 0.200000 -0.500000 1.950000
						CHANNELS 3 Zrotation Yrotation Xrotation
						End Site
						{
							OFFSET 0.000000 0.000000 0.000000
						}
					}
				}
			}
		}
	}
	JOINT RHipJoint
	{
		OFFSET 0.000000 0.000000 0.000000
		CHANNELS 3 Zrotation Yrotation Xrotation
		JOINT RightUpLeg
		{
			OFFSET -1.800000 -1.400000 0.085000
			CHANNELS 3 Zrotation Yrotation Xrotation
			JOINT RightLeg
			{
				OFFSET -2.215000 -6.000000 0.000000
				CHANNELS 3 Zrotation Yrotation Xrotation
				JOINT RightFoot
				{
					OFFSET -2.500000 -6.900000 0.000000
					CHANNELS 3 Zrotation Yrotation Xrotation
					JOINT RightToeBase
					{
						OFFSET -0.200000 -0.500000 1.950000
						CHANNELS 3 Zrotation Yrotation Xrotation
						End Site
						{
							OFFSET 0.000000 0.000000 0.000000
						}
					}
				}
			}
		}
	}
	JOINT LowerBack
	{
		OFFSET 0.000000 0.000000 0.000000
		CHANNELS 3 Zrotation Yrotation Xrotation
		JOINT Spine
		{
			OFFSET -0.087000 1.940000 -0.288900
			CHANNELS 3 Zrotation Yrotation Xrotation
			JOINT Spine1
			{
				OFFSET 0.000000 1.950000 0.060000
				CHANNELS 3 Zrotation Yrotation Xrotation
				JOINT Neck
				{
					OFFSET 0.000000 0.000000 0.000000
					CHANNELS 3 Zrotation Yrotation Xrotation
					JOINT Neck1
					{
						OFFSET 0.000000 1.600000 0.340000
						CHANNELS 3 Zrotation Yrotation Xrotation
						JOINT Head
						{
							OFFSET 0.000000 1.667000 -0.240000
							CHANNELS 3 Zrotation Yrotation Xrotation
							End Site
							{
								OFFSET 0.000000 0.000000 0.000000
							}
						}
					}
				}
				JOINT LeftShoulder
				{
					OFFSET 0.000000 0.000000 0.000000
					CHANNELS 3 Zrotation Yrotation Xrotation
					JOINT LeftArm
					{
						OFFSET 2.700000 1.550000 -0.730000
						CHANNELS 3 Zrotation Yrotation Xrotation
						JOINT LeftForeArm
						{
							OFFSET 5.450000 0.000000 0.000000
							CHANNELS 3 Zrotation Yrotation Xrotation
							JOINT LeftHand
							{
								OFFSET 3.450000 0.000000 0.000000
								CHANNELS 3 Zrotation Yrotation Xrotation
								JOINT LeftHandIndex1
								{
									OFFSET 0.750000 0.000000 0.000000
									CHANNELS 3 Zrotation Yrotation Xrotation
									End Site
									{
										OFFSET 0.000000 0.000000 0.000000
									}
								}
							}
						}
					}
				}
				JOINT RightShoulder
				{
					OFFSET 0.000000 0.000000 0.000000
					CHANNELS 3 Zrotation Yrotation Xrotation
					JOINT RightArm
					{
						OFFSET -2.700000 1.550000 -0.730000
						CHANNELS 3 Zrotation Yrotation Xrotation
						JOINT RightForeArm
						{
							OFFSET -5.450000 0.000000 0.000000
							CHANNELS 3 Zrotation Yrotation Xrotation
							JOINT RightHand
							{
								OFFSET -3.450000 0.000000 0.000000
								CHANNELS 3 Zrotation Yrotation Xrotation
								JOINT RightHandIndex1
								{
									OFFSET -0.750000 0.000000 0.000000
									CHANNELS 3 Zrotation Yrotation Xrotation
									End Site
									{
										OFFSET 0.000000 0.000000 0.000000
									}
								}
							}
						}
					}
				}
			}
		}
	}
}
MOTION
Frames: 14
Frame Time: 0.016667
0.038620 18.176560 -1.503090 -7.623252 -4.205912 -12.932736 -14.899065 13.058651 2.103629 9.739913 0.040616 3.751927 -5.763869 7.936836 18.758752 -0.227564 5.821102 2.595321 0.373470 0.090260 0.346480 18.719347 -9.782146 4.396611 2.574471 11.324632 -36.232475 0.956931 -12.564007 66.473689 -1.783182 -10.232800 0.854043 0.061390 0.135950 0.275720 -4.576511 -1.747427 -7.991801 17.876780 -7.167911 18.490796 -7.052113 -5.143942 13.250329 3.059107 0.477560 -9.127318 -3.421134 2.048903 59.655302 -5.412630 4.334820 -4.511070 -13.756614 -5.593215 2.570311 -21.196262 -4.345300 -3.132970 -60.676327 -62.481479 34.146723 -3.730285 3.444455 0.608520 0.085100 0.084680 0.071280 8.435222 2.430766 4.396126 38.274622 2.030384 -7.170136 39.730777 37.921225 9.818574 2.030415 -1.595258 -0.162270 0.155730 0.082490 -0.246840 
0.052860 18.059660 -1.538210 -8.211348 -5.118955 -13.147092 -14.922921 13.017500 1.996828 10.207711 0.061107 3.531385 -5.402635 8.047647 19.679280 -0.226950 5.864899 2.575384 0.378710 0.106160 0.378950 18.726145 -9.483075 4.764069 1.980060 13.011499 -39.188606 1.545962 -14.183935 71.073280 -2.039922 -11.132583 0.622006 0.057370 0.101510 0.265270 -4.545270 -1.935485 -8.185210 18.687856 -7.745542 20.983481 -6.784882 -5.315235 12.424531 3.258692 0.013835 -9.175159 -4.289205 2.380504 58.666425 -7.069050 4.794290 -6.857830 -14.617275 -5.725928 2.657578 -21.674212 -2.580972 -4.259875 -58.490188 -61.441384 31.627439 -3.700634 3.375652 0.644070 0.060500 0.126520 0.059960 8.871746 3.024481 4.370209 39.175175 2.368354 -7.928668 38.529250 38.984620 9.675652 2.036514 -1.530824 -0.162730 0.185680 0.074110 -0.260100 
0.069800 17.875160 -1.605860 -8.992225 -7.388040 -13.074139 -14.950076 12.870012 1.786105 10.513235 0.134930 2.691648 -4.967473 8.383053 21.843420 -0.200090 5.989710 2.533725 0.365940 0.094210 0.389240 18.773764 -8.954622 5.446992 1.226041 16.481240 -44.425108 2.250349 -16.635571 78.422308 -2.426672 -12.571939 0.256828 0.044500 0.085210 0.241370 -4.576328 -2.107519 -8.457826 20.268736 -8.451416 24.629998 -6.745743 -5.221770 10.607538 3.239910 -1.159297 -9.024661 -6.448763 3.408579 56.502297 -7.961780 4.879980 -8.321180 -16.118903 -5.437799 2.637254 -22.094274 0.134694 -5.484800 -55.971976 -59.192572 28.293460 -3.658236 3.333336 0.663330 0.031220 0.141670 0.054190 10.223307 3.886453 4.135093 40.291451 3.263506 -8.596503 35.528851 40.083243 9.068135 2.070073 -1.469626 -0.174650 0.207970 0.067070 -0.261640 
0.093780 17.651330 -1.692160 -9.315919 -9.050565 -13.351769 -15.023575 12.844977 1.601080 10.259706 0.004927 0.482127 -4.130456 9.096410 27.043277 -0.171560 6.441561 2.376808 0.344910 0.039340 0.428470 18.759958 -8.456440 6.013221 -0.215977 19.333019 -49.292767 2.657228 -19.639773 86.004133 -2.831492 -14.076978 -0.093889 0.026000 0.079340 0.199090 -4.453009 -2.517347 -8.696111 20.392948 -9.361218 29.322785 -6.443212 -5.396205 8.329716 3.243637 -2.311067 -8.838109 -8.393322 4.710229 54.200903 -8.976820 5.334950 -10.144250 -17.910352 -5.273056 2.614845 -22.269140 3.238247 -6.784601 -52.059855 -56.933479 24.296165 -3.616446 3.243314 0.720180 -0.001640 0.142960 0.038480 11.877818 4.954889 3.820141 41.419401 4.688816 -9.110227 32.149987 41.185291 8.367100 2.089153 -1.380159 -0.232770 0.261130 0.069710 -0.294560 
0.136910 17.444580 -1.797980 -9.628779 -12.703442 -13.857595 -15.098232 12.719629 1.565305 10.568812 0.099311 -1.298975 -5.641578 10.684941 30.786840 -0.065357 7.074870 2.143499 0.338170 0.035610 0.440580 18.743764 -7.957046 6.475808 -2.103941 22.706806 -52.702195 5.044597 -23.314801 90.516008 -3.184360 -15.260413 -0.329389 0.025570 0.055840 0.147070 -4.366862 -2.782016 -8.910297 21.405630 -9.779870 34.738936 -6.691984 -4.627460 6.082084 3.430791 -3.877629 -8.890177 -11.445221 6.528262 53.265223 -9.582300 5.326370 -12.593060 -20.612977 -5.824277 2.525186 -22.581138 5.524524 -8.027677 -44.936186 -54.204989 18.818790 -3.541270 3.129962 0.773970 -0.052640 0.165320 0.032080 13.936993 7.327139 4.033472 42.037289 5.929779 -9.892450 27.016940 42.046565 6.946491 2.096149 -1.263831 -0.268160 0.321310 0.067660 -0.306030 
0.171150 17.235370 -1.896950 -9.564553 -17.953435 -13.894807 -15.228702 12.528070 1.588858 11.611225 0.502493 -4.088045 -7.951189 13.520429 35.857619 0.216652 8.130686 1.747141 0.377940 0.093810 0.457740 18.697897 -7.338464 6.960255 -3.898819 27.277073 -56.561910 6.473244 -26.294951 95.354258 -3.551260 -16.396763 -0.551724 0.028470 0.018690 0.166280 -4.228975 -3.075277 -9.184961 21.575297 -8.769595 39.958038 -6.326391 -2.637617 3.884895 3.584835 -4.960217 -8.875326 -13.534370 7.843124 52.368021 -9.729810 5.095840 -14.413640 -23.813608 -6.351192 2.234521 -22.371759 7.216713 -8.692109 -39.013398 -50.496251 14.376101 -3.467747 3.127453 0.773680 -0.092880 0.214970 0.048110 16.506114 9.863999 4.370331 40.994059 6.539324 -10.378895 23.106716 42.432471 5.829125 2.110652 -1.236752 -0.215250 0.307590 0.036300 -0.278410 
0.196580 17.024110 -1.964100 -9.072068 -20.403125 -14.214236 -15.380995 12.415951 1.672385 12.676342 0.692592 -6.476896 -9.285386 16.148297 40.669772 0.492443 9.209105 1.349942 0.360070 0.083530 0.448770 18.614028 -6.733655 7.280425 -8.190596 30.132764 -62.900688 9.406267 -31.070566 98.670612 -3.903779 -17.746843 -0.822344 0.004250 -0.010080 0.178860 -3.966838 -3.635346 -9.460797 20.214100 -8.032048 43.905697 -5.464192 -1.691380 1.648181 3.824452 -5.540772 -8.968756 -14.652355 8.716208 51.582027 -10.881290 5.405200 -14.807010 -27.587815 -7.584936 2.232570 -21.810566 8.915596 -8.984409 -31.115399 -46.083042 9.674214 -3.419098 3.128503 0.754790 -0.104490 0.224480 0.023840 19.684362 12.454274 4.879484 40.044997 6.483095 -10.853853 19.362608 42.193639 4.657547 2.112840 -1.216164 -0.182400 0.272000 0.048780 -0.271110 
0.214350 16.849410 -1.988250 -8.031097 -19.797814 -15.381715 -15.499500 12.427952 1.733258 12.309831 0.558946 -6.891985 -9.519921 17.429261 43.748026 0.657265 9.822129 1.137866 0.418310 0.137130 0.509160 18.526705 -6.309940 7.449489 -14.561302 30.019999 -69.575775 14.272473 -36.571024 98.799482 -4.229380 -18.891197 -1.049843 0.023840 -0.075020 0.191090 -3.661360 -4.258945 -9.644777 18.165188 -7.537709 46.297461 -4.033243 -1.803623 0.466634 4.019615 -5.552087 -8.974299 -14.895269 8.968999 52.544932 -11.541430 5.282780 -16.336840 -30.346516 -8.716432 2.257102 -22.612802 8.612133 -8.732775 -22.714399 -39.319916 5.255686 -3.338471 3.078383 0.785740 -0.151590 0.275600 0.025750 22.174422 14.058337 5.013839 39.834178 6.918535 -10.995990 15.249221 40.446026 3.189026 2.118333 -1.190758 -0.154410 0.251670 0.010930 -0.280640 
0.243920 16.710820 -1.979520 -7.916486 -17.456811 -16.110527 -15.548291 12.429914 1.798357 11.904573 -0.156160 -7.743904 -8.564630 18.058986 47.727040 0.789499 10.400912 0.917783 0.476740 0.188640 0.552300 18.491362 -6.064891 7.502980 -18.547504 27.944248 -72.786814 16.946444 -40.002605 98.393256 -4.396206 -19.458718 -1.178407 0.042820 -0.141690 0.206550 -3.501068 -4.703812 -9.740518 18.032930 -8.441463 46.566186 -3.359734 -2.835769 -0.007776 4.317652 -5.626167 -9.269786 -15.758672 9.767166 55.028492 -11.303320 4.865570 -16.827950 -32.908356 -10.047600 2.591851 -24.533963 7.793679 -8.097488 -13.264878 -31.203145 1.608369 -3.282721 3.010990 0.813160 -0.201030 0.316760 0.019770 24.299477 15.159108 5.163215 39.856619 6.683337 -11.723929 12.308819 40.768622 2.275469 2.109003 -1.200632 -0.117070 0.215800 -0.011090 -0.288260 
0.283930 16.605150 -1.956840 -8.379943 -15.686250 -15.588712 -15.513881 12.301078 1.844944 11.574200 -0.761245 -9.323316 -7.819580 18.354083 50.442660 0.847723 10.789632 0.775861 0.453800 0.163770 0.534210 18.542373 -5.997508 7.547588 -20.782169 26.151846 -74.362523 17.936384 -41.368001 97.754896 -4.403438 -19.589424 -1.214365 0.035610 -0.135730 0.200570 -3.613768 -4.645608 -9.753588 20.009583 -10.150195 44.504845 -4.112711 -3.997992 0.096792 4.644671 -5.950920 -9.500922 -16.907763 10.655236 56.750518 -11.553870 4.486160 -15.870460 -34.310340 -10.500688 2.972915 -27.073124 7.278821 -7.037325 -5.602114 -23.922351 -0.303628 -3.340078 2.875804 0.809200 -0.197300 0.304970 0.000460 25.050224 15.257122 4.945718 41.523855 7.197410 -12.405258 9.816698 42.610668 1.547840 2.090429 -1.173698 -0.122570 0.225150 0.018190 -0.287620 
0.304960 16.531720 -1.922410 -8.568027 -15.145585 -14.963228 -15.458123 12.250956 1.905980 10.983762 -0.924788 -11.339753 -6.333322 18.506958 53.589028 0.970241 11.118735 0.656263 0.457800 0.189320 0.502450 18.589656 -6.144826 7.407081 -19.785020 25.593324 -71.534117 15.999872 -39.733241 98.089015 -4.305910 -19.246975 -1.145535 0.026620 -0.146170 0.190140 -3.761395 -4.434992 -9.683063 21.996341 -10.893515 42.198046 -5.089163 -4.439248 0.200740 4.834264 -6.240923 -10.268945 -18.494120 12.126206 58.570537 -10.570290 3.992180 -14.553150 -34.825534 -11.026527 3.609396 -29.499392 8.172988 -6.257800 -0.617737 -18.442968 -1.004485 -3.361698 2.816334 0.782620 -0.212280 0.308120 0.007660 25.161826 15.599248 5.371769 44.310332 5.863716 -14.808978 9.149535 49.136699 1.199965 2.055229 -1.225790 -0.083400 0.212590 0.013510 -0.257570 
0.312000 16.468610 -1.858340 -8.523934 -13.698022 -14.067897 -15.380646 12.285842 1.881530 9.491034 -1.045196 -12.453473 -3.991381 17.334726 55.305354 1.016425 11.011228 0.685191 0.435670 0.185530 0.471000 18.642224 -6.414891 7.240532 -19.004971 24.320015 -68.104021 15.114214 -38.344032 97.146311 -4.166397 -18.805133 -1.068594 -0.007090 -0.160510 0.200430 -3.918637 -4.182832 -9.552310 23.668888 -11.489346 38.742394 -5.773242 -5.172298 0.253189 5.029512 -6.315241 -10.339562 -18.502433 12.398501 58.796909 -11.706290 4.220130 -13.027390 -33.316910 -9.394639 3.737991 -32.458859 9.634110 -6.429459 1.241317 -17.553490 -1.092133 -3.384218 2.825480 0.731480 -0.204750 0.304880 0.004070 23.234501 13.746801 5.124854 48.815874 5.893855 -15.923197 10.979770 56.047814 1.933703 2.072032 -1.296490 -0.034900 0.162030 0.009190 -0.230390 
0.314530 16.446040 -1.795140 -8.293779 -11.236307 -13.551590 -15.276739 12.451402 1.959647 7.366571 -1.669087 -13.220099 -1.405972 15.262811 56.391407 0.978425 10.753372 0.790251 0.361310 0.102010 0.402040 18.671061 -6.992835 6.719420 -15.741096 21.717461 -60.162197 12.171382 -33.650434 94.296980 -3.767960 -17.479650 -0.823527 -0.061440 -0.112570 0.190810 -4.050387 -3.925183 -9.287773 24.780995 -12.261995 35.189219 -6.212291 -6.448964 0.299645 4.857392 -6.527537 -10.550136 -18.802014 12.809407 58.336349 -11.992120 4.222590 -11.059580 -30.244074 -7.362504 3.951063 -35.194537 11.622310 -7.417157 -0.030782 -19.936622 -1.004953 -3.400780 2.801164 0.712290 -0.181260 0.268070 0.005570 20.533501 11.389523 5.034494 53.433382 5.931180 -16.049660 19.118760 63.239036 6.160893 2.111778 -1.383283 -0.051640 0.167290 0.044090 -0.212170 
0.285510 16.443810 -1.730990 -7.057361 -9.625338 -13.023865 -15.199485 12.667232 2.108302 5.006863 -1.963311 -13.281043 0.131693 13.654421 56.101337 0.966416 10.420329 0.942412 0.250180 -0.023890 0.326460 18.653980 -7.628251 6.135782 -12.786266 19.299149 -52.623128 9.154524 -28.495080 90.770478 -3.321157 -16.057669 -0.516791 -0.144310 -0.040700 0.176630 -4.091426 -3.680140 -9.088719 23.583267 -11.446045 32.210808 -5.742692 -6.846205 0.110599 4.400349 -5.881432 -10.545301 -16.536795 11.731464 57.269831 -12.461730 5.068280 -7.823060 -26.583340 -4.734492 3.872951 -36.736999 13.163198 -8.442343 -3.487942 -22.942082 -0.546742 -3.454509 2.788257 0.663020 -0.123510 0.202950 -0.001520 17.802161 8.266903 4.972149 57.872177 5.470028 -14.948628 30.785665 70.456309 14.056631 2.183061 -1.498572 -0.076470 0.160570 0.083360 -0.198990 
